<svg xmlns="http://www.w3.org/2000/svg" width="560" height="700" viewBox="0 0 560 700">
  <path fill="#fff" stroke="#d8dde6" stroke-width="7" d="M178 128 91 178 53 336l72 24 31-92 2 322h244l2-322 31 92 72-24-38-158-87-50-43-76H221z"/>
  <path fill="#f8fafc" stroke="#d8dde6" stroke-width="5" d="M221 52c16 62 102 62 118 0 31 24 49 57 54 97l-77 69-36-77-36 77-77-69c5-40 23-73 54-97z"/>
  <path fill="none" stroke="#e5e7eb" stroke-width="5" d="M158 276c31 44 213 44 244 0M215 438h130M280 142v178"/>
</svg>
